<?xml version="1.0" encoding="UTF-8" standalone="no"?>
<!DOCTYPE svg PUBLIC "-//W3C//DTD SVG 1.1//EN" "http://www.w3.org/Graphics/SVG/1.1/DTD/svg11.dtd">
<svg version="1.1" xmlns="http://www.w3.org/2000/svg" xmlns:xlink="http://www.w3.org/1999/xlink" preserveAspectRatio="xMidYMid meet" viewBox="182.06560000000002 24.6 277.88416000000007 464.80000000000024" width="273.88" height="460.8"><defs><path d="M321.66 53.61L322.47 53.7L323.28 53.81L324.07 53.96L324.86 54.13L325.63 54.34L326.39 54.58L327.14 54.84L327.87 55.14L328.59 55.46L329.29 55.81L329.98 56.18L330.65 56.58L331.31 57.01L331.95 57.45L332.56 57.93L333.16 58.42L333.75 58.94L334.31 59.48L334.84 60.04L335.36 60.62L335.86 61.22L336.33 61.84L336.78 62.48L337.2 63.13L337.6 63.8L337.98 64.49L338.33 65.19L338.65 65.91L338.94 66.65L339.21 67.39L339.44 68.15L339.65 68.93L339.83 69.71L339.97 70.51L340.09 71.31L340.17 72.13L340.22 72.95L340.24 73.78L340.23 74.49L340.19 75.18L340.13 75.87L340.05 76.55L339.94 77.22L339.82 77.89L339.67 78.55L339.5 79.2L339.31 79.84L339.09 80.47L338.86 81.09L338.61 81.71L338.34 82.31L338.05 82.9L337.74 83.48L337.41 84.05L337.07 84.61L336.7 85.15L336.32 85.68L335.93 86.2L335.51 86.71L335.08 87.2L334.64 87.68L334.18 88.14L333.71 88.59L333.22 89.03L332.72 89.44L332.2 89.85L331.67 90.23L331.13 90.6L330.57 90.95L330.01 91.29L329.43 91.61L328.84 91.9L328.24 92.18L327.63 92.45L327.01 92.69L326.38 92.91L325.75 93.11L325.1 93.29L325.1 113.82L405.74 113.82L417.83 252.71L417.88 252.7L417.93 252.7L417.98 252.7L418.02 252.69L418.07 252.69L418.12 252.68L418.16 252.68L418.21 252.67L418.26 252.66L418.31 252.66L418.35 252.65L418.4 252.65L418.45 252.64L418.49 252.63L418.54 252.63L418.63 252.61L418.68 252.61L418.73 252.6L418.77 252.6L418.82 252.59L418.87 252.58L418.91 252.58L418.96 252.57L419.01 252.57L419.06 252.56L419.1 252.56L419.15 252.55L419.2 252.55L419.24 252.54L419.29 252.54L419.34 252.53L419.39 252.53L419.43 252.53L419.48 252.52L419.53 252.52L419.58 252.52L419.63 252.52L419.67 252.52L419.72 252.52L420.75 252.54L421.77 252.6L422.78 252.7L423.78 252.85L424.76 253.03L425.73 253.25L426.68 253.5L427.62 253.8L428.55 254.12L429.45 254.49L430.34 254.88L431.21 255.32L432.06 255.78L432.89 256.27L433.7 256.8L434.49 257.35L435.26 257.94L436 258.55L436.71 259.19L437.41 259.85L438.07 260.55L438.71 261.26L439.33 262.01L439.91 262.77L440.46 263.56L440.99 264.37L441.48 265.2L441.95 266.05L442.38 266.92L442.77 267.81L443.14 268.72L443.47 269.64L443.76 270.58L444.02 271.53L444.23 272.5L444.42 273.49L444.56 274.48L444.66 275.49L444.72 276.51L444.74 277.54L444.74 278.15L444.71 278.76L444.68 279.36L444.63 279.96L444.56 280.55L444.48 281.14L444.39 281.73L444.28 282.31L444.16 282.89L444.03 283.46L443.88 284.02L443.72 284.58L443.55 285.14L443.36 285.69L443.16 286.23L442.95 286.77L442.73 287.3L442.49 287.82L442.25 288.34L441.99 288.85L441.72 289.36L441.44 289.86L441.15 290.35L440.85 290.83L440.54 291.31L440.21 291.78L439.88 292.24L439.54 292.69L439.18 293.14L438.82 293.58L438.45 294.01L438.06 294.43L437.67 294.84L437.27 295.24L436.86 295.64L436.44 296.02L436.02 296.4L435.58 296.77L435.14 297.12L434.69 297.47L434.69 377.4L435.63 377.59L436.56 377.82L437.48 378.08L438.38 378.37L439.28 378.69L440.15 379.04L441.01 379.42L441.86 379.83L442.69 380.27L443.5 380.73L444.29 381.22L445.07 381.74L445.83 382.28L446.57 382.84L447.29 383.43L447.98 384.04L448.66 384.68L449.32 385.34L449.95 386.02L450.56 386.72L451.14 387.44L451.7 388.18L452.24 388.95L452.75 389.72L453.24 390.52L453.69 391.34L454.12 392.17L454.53 393.02L454.9 393.88L455.25 394.76L455.56 395.65L455.84 396.56L456.1 397.48L456.32 398.42L456.51 399.36L456.67 400.32L456.79 401.28L456.88 402.26L456.93 403.25L456.95 404.24L456.94 404.94L456.92 405.62L456.87 406.31L456.81 406.99L456.74 407.67L456.64 408.34L456.53 409.01L456.41 409.68L456.26 410.34L456.1 411L455.93 411.65L455.74 412.29L455.53 412.93L455.31 413.57L455.07 414.2L454.82 414.82L454.55 415.43L454.27 416.04L453.98 416.64L453.66 417.23L453.34 417.81L453 418.39L452.64 418.96L452.27 419.52L451.89 420.07L451.49 420.61L451.08 421.14L450.66 421.67L450.22 422.18L449.77 422.68L449.3 423.17L448.83 423.65L448.34 424.12L447.83 424.58L447.32 425.03L446.79 425.47L446.25 425.89L445.7 426.3L445.14 426.7L444.56 427.09L441.77 422.82L438.98 418.55L439.34 418.31L439.7 418.06L440.04 417.8L440.38 417.54L440.71 417.26L441.04 416.98L441.35 416.7L441.66 416.4L441.96 416.1L442.25 415.79L442.53 415.48L442.81 415.15L443.07 414.83L443.33 414.49L443.58 414.15L443.82 413.81L444.05 413.46L444.27 413.1L444.49 412.74L444.69 412.38L444.89 412L445.07 411.63L445.25 411.25L445.42 410.86L445.58 410.47L445.72 410.08L445.86 409.68L445.99 409.28L446.11 408.88L446.22 408.47L446.32 408.06L446.41 407.65L446.49 407.23L446.56 406.81L446.62 406.39L446.66 405.96L446.7 405.54L446.73 405.11L446.75 404.68L446.75 404.24L446.74 403.54L446.69 402.84L446.62 402.15L446.53 401.46L446.4 400.79L446.25 400.12L446.08 399.47L445.87 398.82L445.65 398.19L445.4 397.57L445.13 396.96L444.83 396.36L444.52 395.78L444.18 395.21L443.82 394.65L443.44 394.11L443.04 393.59L442.62 393.08L442.18 392.59L441.72 392.11L441.24 391.65L440.75 391.21L440.24 390.79L439.72 390.39L439.18 390.01L438.62 389.65L438.05 389.31L437.47 389L436.87 388.7L436.26 388.43L435.64 388.18L435.01 387.95L434.36 387.75L433.71 387.58L433.04 387.43L432.37 387.3L431.69 387.2L430.99 387.13L430.3 387.09L429.59 387.08L428.88 387.09L428.18 387.13L427.49 387.2L426.81 387.3L426.14 387.43L425.47 387.58L424.82 387.75L424.18 387.95L423.54 388.18L422.92 388.43L422.31 388.7L421.72 389L421.13 389.31L420.56 389.65L420.01 390.01L419.47 390.39L418.95 390.79L418.44 391.21L417.95 391.65L417.47 392.11L417.01 392.59L416.58 393.08L416.16 393.59L415.76 394.11L415.37 394.65L415.02 395.21L414.68 395.78L414.36 396.36L414.06 396.96L413.79 397.57L413.54 398.19L413.32 398.82L413.12 399.47L412.94 400.12L412.79 400.79L412.67 401.46L412.57 402.15L412.5 402.84L412.46 403.54L412.44 404.24L412.45 404.68L412.46 405.11L412.49 405.54L412.53 405.97L412.58 406.39L412.63 406.81L412.7 407.23L412.78 407.65L412.87 408.06L412.97 408.47L413.08 408.88L413.2 409.29L413.33 409.69L413.47 410.08L413.62 410.48L413.78 410.87L413.94 411.25L414.12 411.63L414.31 412.01L414.5 412.38L414.71 412.74L414.92 413.1L415.14 413.46L415.37 413.81L415.61 414.16L415.86 414.49L416.12 414.83L416.39 415.16L416.66 415.48L416.95 415.79L417.24 416.1L417.54 416.4L417.84 416.7L418.16 416.98L418.48 417.26L418.81 417.54L419.15 417.8L419.5 418.06L419.85 418.31L420.21 418.55L414.63 427.1L414.06 426.71L413.49 426.31L412.94 425.9L412.4 425.47L411.87 425.04L411.36 424.59L410.85 424.13L410.36 423.66L409.89 423.18L409.42 422.69L408.97 422.18L408.53 421.67L408.11 421.15L407.7 420.62L407.3 420.07L406.92 419.52L406.55 418.96L406.19 418.4L405.85 417.82L405.52 417.23L405.21 416.64L404.92 416.04L404.63 415.43L404.37 414.82L404.11 414.2L403.88 413.57L403.65 412.94L403.45 412.3L403.26 411.65L403.08 411L402.92 410.34L402.78 409.68L402.66 409.02L402.55 408.35L402.45 407.67L402.37 406.99L402.31 406.31L402.27 405.63L402.25 404.94L402.24 404.24L402.26 403.25L402.31 402.26L402.4 401.28L402.52 400.32L402.67 399.36L402.86 398.41L403.08 397.48L403.34 396.56L403.62 395.65L403.94 394.76L404.28 393.88L404.65 393.01L405.06 392.17L405.49 391.33L405.94 390.52L406.43 389.72L406.94 388.94L407.47 388.18L408.04 387.44L408.62 386.71L409.23 386.01L409.86 385.33L410.52 384.67L411.19 384.04L411.89 383.43L412.61 382.84L413.35 382.27L414.11 381.73L414.88 381.21L415.68 380.72L416.49 380.26L417.32 379.83L418.16 379.42L419.03 379.04L419.9 378.69L420.79 378.37L421.7 378.08L422.62 377.82L423.55 377.59L424.49 377.4L424.49 302.09L424.37 302.11L424.26 302.13L424.14 302.15L424.02 302.17L423.91 302.19L423.79 302.21L423.67 302.23L423.56 302.25L423.44 302.27L423.32 302.29L423.2 302.3L423.09 302.32L422.97 302.34L422.85 302.35L422.73 302.37L422.61 302.38L422.49 302.4L422.37 302.41L422.25 302.42L422.14 302.44L422.02 302.45L421.9 302.46L421.78 302.47L421.66 302.48L421.54 302.49L421.42 302.5L421.3 302.51L421.18 302.52L421.06 302.53L420.93 302.53L420.81 302.54L420.69 302.54L420.57 302.55L420.45 302.55L420.33 302.56L420.21 302.56L420.08 302.56L419.96 302.57L419.84 302.57L419.72 302.57L419.26 302.56L418.81 302.55L418.35 302.53L417.9 302.5L417.45 302.46L417.01 302.42L416.57 302.36L416.13 302.3L415.69 302.23L415.25 302.15L414.82 302.07L414.39 301.97L413.97 301.87L413.54 301.77L413.12 301.65L412.7 301.53L412.29 301.4L411.88 301.26L411.47 301.12L411.06 300.97L410.66 300.81L410.26 300.64L409.87 300.47L409.48 300.29L409.09 300.11L408.7 299.92L408.32 299.72L407.95 299.52L407.57 299.31L407.2 299.1L406.84 298.87L406.48 298.65L406.12 298.41L405.76 298.17L405.41 297.93L405.07 297.68L404.73 297.43L404.39 297.16L404.06 296.9L403.73 296.63L403.73 363.12L391.74 363.12L391.74 449.44L404.12 486.4L321.78 486.4L334.16 449.44L334.16 363.12L305.84 363.12L305.84 449.44L318.21 486.4L235.88 486.4L248.28 449.44L248.28 363.12L236.29 363.12L236.29 296.63L235.96 296.9L235.63 297.16L235.29 297.43L234.95 297.68L234.61 297.93L234.26 298.17L233.9 298.41L233.55 298.65L233.18 298.87L232.82 299.1L232.45 299.31L232.07 299.52L231.7 299.72L231.32 299.92L230.93 300.11L230.54 300.29L230.15 300.47L229.76 300.64L229.36 300.81L228.96 300.97L228.55 301.12L228.14 301.26L227.73 301.4L227.32 301.53L226.9 301.65L226.48 301.77L226.05 301.87L225.63 301.97L225.2 302.07L224.77 302.15L224.33 302.23L223.89 302.3L223.45 302.36L223.01 302.42L222.57 302.46L222.12 302.5L221.67 302.53L221.22 302.55L220.76 302.56L220.3 302.57L220.18 302.57L220.06 302.57L219.94 302.56L219.81 302.56L219.69 302.56L219.57 302.55L219.45 302.55L219.33 302.55L219.21 302.54L219.09 302.53L218.97 302.53L218.84 302.52L218.72 302.51L218.6 302.5L218.48 302.49L218.36 302.48L218.24 302.47L218.12 302.46L218 302.45L217.88 302.44L217.77 302.43L217.65 302.41L217.53 302.4L217.41 302.39L217.29 302.37L217.17 302.35L217.05 302.34L216.94 302.32L216.82 302.31L216.7 302.29L216.58 302.27L216.46 302.25L216.35 302.23L216.23 302.21L216.11 302.19L216 302.17L215.88 302.15L215.76 302.13L215.65 302.11L215.53 302.09L215.53 380.2L216.47 380.4L217.4 380.63L218.32 380.89L219.23 381.18L220.12 381.5L220.99 381.85L221.86 382.23L222.7 382.64L223.53 383.07L224.34 383.54L225.14 384.03L225.91 384.54L226.67 385.08L227.41 385.65L228.13 386.24L228.83 386.85L229.5 387.49L230.16 388.14L230.79 388.83L231.4 389.53L231.99 390.25L232.55 390.99L233.08 391.75L233.59 392.53L234.08 393.33L234.53 394.14L234.96 394.98L235.37 395.82L235.74 396.69L236.08 397.57L236.4 398.46L236.68 399.37L236.94 400.29L237.16 401.22L237.35 402.17L237.5 403.12L237.62 404.09L237.71 405.07L237.77 406.05L237.78 407.05L237.77 407.74L237.75 408.43L237.71 409.12L237.65 409.8L237.57 410.48L237.48 411.15L237.37 411.82L237.24 412.49L237.1 413.15L236.94 413.81L236.76 414.46L236.57 415.1L236.37 415.74L236.14 416.38L235.91 417.01L235.65 417.63L235.39 418.24L235.1 418.85L234.81 419.45L234.49 420.04L234.17 420.62L233.83 421.2L233.47 421.77L233.1 422.33L232.72 422.88L232.32 423.42L231.91 423.95L231.49 424.48L231.05 424.99L230.6 425.49L230.13 425.98L229.66 426.47L229.17 426.94L228.66 427.39L228.15 427.84L227.62 428.28L227.08 428.7L226.53 429.11L225.96 429.51L225.39 429.9L219.81 421.36L220.17 421.12L220.52 420.87L220.87 420.61L221.21 420.34L221.54 420.07L221.86 419.79L222.18 419.5L222.48 419.21L222.78 418.91L223.08 418.6L223.36 418.28L223.63 417.96L223.9 417.63L224.16 417.3L224.41 416.96L224.65 416.62L224.88 416.27L225.1 415.91L225.31 415.55L225.52 415.18L225.71 414.81L225.9 414.44L226.08 414.06L226.25 413.67L226.4 413.28L226.55 412.89L226.69 412.49L226.82 412.09L226.94 411.69L227.05 411.28L227.15 410.87L227.24 410.45L227.32 410.04L227.39 409.62L227.44 409.2L227.49 408.77L227.53 408.34L227.56 407.91L227.57 407.48L227.58 407.05L227.56 406.34L227.52 405.64L227.45 404.95L227.35 404.27L227.23 403.59L227.08 402.93L226.9 402.27L226.7 401.63L226.48 401L226.23 400.37L225.96 399.76L225.66 399.17L225.34 398.58L225 398.01L224.64 397.46L224.26 396.92L223.86 396.39L223.44 395.88L223 395.39L222.55 394.92L222.07 394.46L221.58 394.02L221.07 393.6L220.54 393.2L220 392.82L219.45 392.46L218.88 392.12L218.29 391.8L217.7 391.51L217.09 391.23L216.47 390.98L215.83 390.76L215.19 390.56L214.53 390.38L213.87 390.23L213.19 390.11L212.51 390.01L211.82 389.94L211.12 389.9L210.41 389.88L209.71 389.9L209.01 389.94L208.32 390.01L207.63 390.11L206.96 390.23L206.3 390.38L205.64 390.56L205 390.76L204.37 390.98L203.75 391.23L203.14 391.51L202.54 391.8L201.96 392.12L201.39 392.46L200.83 392.82L200.29 393.2L199.77 393.6L199.26 394.02L198.77 394.46L198.3 394.92L197.84 395.39L197.4 395.88L196.98 396.39L196.58 396.92L196.2 397.46L195.84 398.01L195.5 398.58L195.19 399.17L194.89 399.76L194.62 400.37L194.37 401L194.15 401.63L193.94 402.27L193.77 402.93L193.62 403.59L193.49 404.27L193.4 404.95L193.33 405.64L193.28 406.34L193.27 407.05L193.28 407.48L193.29 407.91L193.32 408.34L193.36 408.77L193.4 409.19L193.46 409.62L193.53 410.04L193.61 410.45L193.7 410.87L193.8 411.28L193.91 411.69L194.03 412.09L194.16 412.49L194.3 412.89L194.44 413.28L194.6 413.67L194.77 414.05L194.95 414.43L195.13 414.81L195.33 415.18L195.53 415.55L195.75 415.91L195.97 416.26L196.2 416.61L196.44 416.96L196.69 417.3L196.95 417.63L197.21 417.96L197.49 418.28L197.77 418.6L198.06 418.9L198.36 419.21L198.67 419.5L198.98 419.79L199.31 420.07L199.64 420.34L199.98 420.61L200.32 420.87L200.68 421.12L201.04 421.36L198.25 425.63L195.46 429.9L194.88 429.51L194.32 429.11L193.76 428.7L193.22 428.27L192.7 427.84L192.18 427.39L191.68 426.93L191.19 426.46L190.71 425.98L190.25 425.49L189.8 424.99L189.36 424.47L188.93 423.95L188.52 423.42L188.13 422.88L187.74 422.33L187.37 421.77L187.02 421.2L186.68 420.62L186.35 420.04L186.04 419.45L185.74 418.85L185.46 418.24L185.19 417.62L184.94 417L184.7 416.37L184.48 415.74L184.28 415.1L184.09 414.46L183.91 413.8L183.75 413.15L183.61 412.49L183.48 411.82L183.37 411.15L183.28 410.48L183.2 409.8L183.14 409.12L183.1 408.43L183.07 407.74L183.07 407.05L183.08 406.05L183.14 405.07L183.22 404.09L183.35 403.12L183.5 402.16L183.69 401.22L183.91 400.29L184.17 399.36L184.45 398.46L184.76 397.56L185.11 396.68L185.48 395.82L185.88 394.97L186.31 394.14L186.77 393.32L187.26 392.53L187.77 391.75L188.3 390.98L188.86 390.24L189.45 389.52L190.06 388.82L190.69 388.14L191.34 387.48L192.02 386.84L192.72 386.23L193.44 385.64L194.18 385.08L194.93 384.54L195.71 384.02L196.51 383.53L197.32 383.07L198.15 382.63L198.99 382.22L199.85 381.85L200.73 381.5L201.62 381.17L202.53 380.88L203.44 380.62L204.37 380.4L205.32 380.2L205.32 297.47L204.87 297.12L204.42 296.77L203.99 296.4L203.56 296.02L203.14 295.64L202.73 295.24L202.33 294.84L201.94 294.43L201.56 294.01L201.19 293.58L200.82 293.14L200.47 292.69L200.13 292.24L199.79 291.78L199.47 291.31L199.16 290.83L198.85 290.35L198.56 289.86L198.28 289.36L198.01 288.85L197.76 288.34L197.51 287.82L197.28 287.3L197.05 286.77L196.84 286.23L196.65 285.69L196.46 285.14L196.29 284.58L196.13 284.02L195.98 283.46L195.85 282.89L195.72 282.31L195.62 281.73L195.52 281.14L195.44 280.55L195.38 279.96L195.33 279.36L195.29 278.76L195.27 278.15L195.26 277.54L195.28 276.51L195.34 275.49L195.45 274.48L195.59 273.49L195.77 272.5L195.99 271.53L196.25 270.58L196.54 269.64L196.87 268.72L197.23 267.81L197.63 266.92L198.06 266.05L198.52 265.2L199.02 264.37L199.54 263.56L200.1 262.77L200.68 262.01L201.29 261.26L201.93 260.55L202.6 259.85L203.29 259.19L204.01 258.55L204.75 257.94L205.51 257.35L206.3 256.8L207.11 256.27L207.94 255.78L208.79 255.32L209.66 254.88L210.55 254.49L211.46 254.12L212.38 253.8L213.32 253.5L214.28 253.25L215.25 253.03L216.23 252.85L217.23 252.7L218.23 252.6L219.25 252.54L220.28 252.52L220.33 252.52L220.38 252.52L220.43 252.52L220.48 252.52L220.52 252.52L220.57 252.53L220.62 252.53L220.67 252.53L220.71 252.54L220.76 252.54L220.81 252.55L220.86 252.55L220.9 252.56L220.95 252.56L221 252.57L221.04 252.57L221.09 252.58L221.14 252.58L221.18 252.59L221.23 252.6L221.28 252.6L221.33 252.61L221.37 252.61L221.47 252.63L221.51 252.63L221.56 252.64L221.61 252.65L221.65 252.65L221.7 252.66L221.75 252.66L221.79 252.67L221.84 252.68L221.89 252.68L221.94 252.69L221.98 252.69L222.03 252.7L222.08 252.7L222.12 252.7L222.17 252.71L234.27 113.82L314.9 113.82L314.9 93.29L314.25 93.11L313.61 92.91L312.98 92.69L312.37 92.45L311.76 92.19L311.16 91.91L310.57 91.61L309.99 91.29L309.42 90.96L308.87 90.6L308.33 90.24L307.8 89.85L307.28 89.45L306.78 89.03L306.29 88.6L305.82 88.15L305.36 87.68L304.91 87.21L304.48 86.71L304.07 86.21L303.67 85.69L303.29 85.15L302.93 84.61L302.58 84.05L302.26 83.48L301.95 82.9L301.66 82.31L301.38 81.71L301.13 81.1L300.9 80.47L300.69 79.84L300.5 79.2L300.33 78.55L300.18 77.89L300.05 77.23L299.94 76.55L299.86 75.87L299.8 75.18L299.77 74.49L299.76 73.78L299.77 72.95L299.82 72.13L299.91 71.31L300.02 70.51L300.17 69.71L300.34 68.93L300.55 68.16L300.79 67.4L301.06 66.65L301.35 65.92L301.67 65.2L302.02 64.49L302.39 63.8L302.79 63.13L303.22 62.48L303.67 61.84L304.14 61.22L304.64 60.62L305.15 60.04L305.69 59.48L306.25 58.94L306.83 58.42L307.43 57.93L308.05 57.46L308.69 57.01L309.34 56.58L310.02 56.18L310.7 55.81L311.41 55.46L312.13 55.14L312.86 54.84L313.61 54.58L314.37 54.34L315.14 54.13L315.93 53.96L316.72 53.81L317.53 53.7L318.34 53.61L319.17 53.56L320 53.54L320.83 53.56L321.66 53.61ZM250.06 476.2L304.05 476.2L297.62 456.98L256.49 456.98L250.06 476.2ZM335.95 476.2L389.95 476.2L383.51 456.98L342.39 456.98L335.95 476.2ZM344.36 444.03L381.54 444.03L381.54 428.33L344.36 428.33L344.36 444.03ZM258.46 444.03L295.64 444.03L295.64 428.33L258.46 428.33L258.46 444.03ZM258.46 418.13L295.64 418.13L295.64 364.62L258.46 364.62L258.46 418.13ZM344.36 418.13L381.54 418.13L381.54 364.62L344.36 364.62L344.36 418.13ZM246.47 352.92L393.53 352.92L393.53 255.92L246.47 255.92L246.47 352.92ZM217.62 262.96L216.35 263.25L215.11 263.65L213.93 264.15L212.81 264.74L211.74 265.43L210.74 266.21L209.81 267.06L208.95 268L208.17 269L207.49 270.07L206.89 271.19L206.39 272.37L205.99 273.6L205.7 274.88L205.52 276.19L205.46 277.54L205.52 278.89L205.7 280.2L205.99 281.48L206.39 282.71L206.89 283.89L207.49 285.02L208.17 286.09L208.95 287.09L209.81 288.02L210.74 288.88L211.74 289.65L212.81 290.34L213.93 290.94L215.11 291.44L216.35 291.84L217.62 292.13L218.94 292.31L220.28 292.37L221.63 292.31L222.94 292.13L224.22 291.84L225.45 291.44L226.63 290.94L227.76 290.34L228.83 289.65L229.83 288.88L230.76 288.02L231.62 287.09L232.39 286.09L233.08 285.02L233.68 283.89L234.18 282.71L234.58 281.48L234.87 280.2L235.04 278.89L235.11 277.54L235.04 276.19L234.87 274.88L234.58 273.6L234.18 272.37L233.68 271.19L233.08 270.07L232.39 269L231.62 268L230.76 267.06L229.83 266.21L228.83 265.43L227.76 264.74L226.63 264.15L225.45 263.65L224.22 263.25L222.94 262.96L221.63 262.78L220.28 262.72L218.94 262.78L217.62 262.96ZM417.06 262.96L415.78 263.25L414.55 263.65L413.37 264.15L412.24 264.74L411.17 265.43L410.17 266.21L409.24 267.06L408.38 268L407.61 269L406.92 270.07L406.32 271.19L405.82 272.37L405.42 273.6L405.13 274.88L404.96 276.19L404.89 277.54L404.96 278.89L405.13 280.2L405.42 281.48L405.82 282.71L406.32 283.89L406.92 285.02L407.61 286.09L408.38 287.09L409.24 288.02L410.17 288.88L411.17 289.65L412.24 290.34L413.37 290.94L414.55 291.44L415.78 291.84L417.06 292.13L418.37 292.31L419.72 292.37L421.06 292.31L422.38 292.13L423.65 291.84L424.89 291.44L426.07 290.94L427.19 290.34L428.26 289.65L429.26 288.88L430.19 288.02L431.05 287.09L431.83 286.09L432.51 285.02L433.11 283.89L433.61 282.71L434.01 281.48L434.3 280.2L434.48 278.89L434.54 277.54L434.48 276.19L434.3 274.88L434.01 273.6L433.61 272.37L433.11 271.19L432.51 270.07L431.83 269L431.05 268L430.19 267.06L429.26 266.21L428.26 265.43L427.19 264.74L426.07 264.15L424.89 263.65L423.65 263.25L422.38 262.96L421.06 262.78L419.72 262.72L418.37 262.78L417.06 262.96ZM233.02 245.72L406.99 245.72L396.39 124.02L243.62 124.02L233.02 245.72ZM317.33 64.1L316.09 64.53L314.93 65.12L313.86 65.84L312.9 66.69L312.05 67.65L311.33 68.72L310.75 69.88L310.31 71.12L310.05 72.42L309.95 73.78L310.05 75.15L310.31 76.45L310.75 77.69L311.33 78.85L312.05 79.92L312.9 80.88L313.86 81.73L314.93 82.45L316.09 83.03L317.33 83.47L318.64 83.73L320 83.82L321.36 83.73L322.67 83.47L323.91 83.03L325.07 82.45L326.13 81.73L327.1 80.88L327.95 79.92L328.67 78.85L329.25 77.69L329.68 76.45L329.95 75.14L330.04 73.78L329.95 72.42L329.68 71.12L329.25 69.88L328.67 68.72L327.95 67.65L327.1 66.69L326.13 65.84L325.07 65.12L323.91 64.53L322.67 64.1L321.36 63.84L320 63.74L318.64 63.84L317.33 64.1Z" id="c5bKuIUclw"></path><path d="M320 25.6L314.9 25.6L314.9 45.24L320 45.24L325.1 45.24L325.1 25.6L320 25.6Z" id="axlYMdIMn"></path><path d="M369.73 80.44L369.73 75.33L369.73 70.24L350.09 70.24L350.09 75.33L350.09 80.44L369.73 80.44Z" id="akw1GeIaL"></path><path d="M289.91 70.23C289.91 70.23 289.91 70.23 289.91 70.23C289.91 76.35 289.91 79.75 289.91 80.43C289.91 80.43 289.91 80.43 289.91 80.43C278.12 80.43 271.57 80.43 270.26 80.43C270.26 80.43 270.26 80.43 270.26 80.43C270.26 74.31 270.26 70.91 270.26 70.23C270.26 70.23 270.26 70.23 270.26 70.23C282.05 70.23 288.6 70.23 289.91 70.23Z" id="c3lVsRfAE9"></path><path d="M337.67 50.45L341.28 54.05L344.88 57.66L358.77 43.77L355.16 40.17L351.56 36.56L337.67 50.45Z" id="e1BIutexRu"></path><path d="M288.44 36.56L284.83 40.17L281.23 43.77L295.12 57.66L302.33 50.45L288.44 36.56Z" id="g82ebTKs6"></path><path d="M354.1 174.3L342.06 162.26L334.84 169.47L346.89 181.51L334.84 193.56L342.06 200.77L354.1 188.72L366.15 200.77L373.36 193.56L361.31 181.51L373.36 169.47L366.15 162.26L354.1 174.3Z" id="cAv6R7SIb"></path><path d="M297.94 162.26L285.9 174.3L273.85 162.26L266.64 169.47L278.69 181.51L266.64 193.56L273.85 200.77L285.9 188.72L297.94 200.77L301.55 197.16L305.15 193.56L293.11 181.51L305.15 169.47L301.55 165.86L297.94 162.26Z" id="c1ln9PACcR"></path></defs><g><g><use xlink:href="#c5bKuIUclw" opacity="1" fill="#000000" fill-opacity="1"></use><g><use xlink:href="#c5bKuIUclw" opacity="1" fill-opacity="0" stroke="#000000" stroke-width="1" stroke-opacity="0"></use></g></g><g><use xlink:href="#axlYMdIMn" opacity="1" fill="#000000" fill-opacity="1"></use><g><use xlink:href="#axlYMdIMn" opacity="1" fill-opacity="0" stroke="#000000" stroke-width="1" stroke-opacity="0"></use></g></g><g><use xlink:href="#akw1GeIaL" opacity="1" fill="#000000" fill-opacity="1"></use><g><use xlink:href="#akw1GeIaL" opacity="1" fill-opacity="0" stroke="#000000" stroke-width="1" stroke-opacity="0"></use></g></g><g><use xlink:href="#c3lVsRfAE9" opacity="1" fill="#000000" fill-opacity="1"></use><g><use xlink:href="#c3lVsRfAE9" opacity="1" fill-opacity="0" stroke="#000000" stroke-width="1" stroke-opacity="0"></use></g></g><g><use xlink:href="#e1BIutexRu" opacity="1" fill="#000000" fill-opacity="1"></use><g><use xlink:href="#e1BIutexRu" opacity="1" fill-opacity="0" stroke="#000000" stroke-width="1" stroke-opacity="0"></use></g></g><g><use xlink:href="#g82ebTKs6" opacity="1" fill="#000000" fill-opacity="1"></use><g><use xlink:href="#g82ebTKs6" opacity="1" fill-opacity="0" stroke="#000000" stroke-width="1" stroke-opacity="0"></use></g></g><g><use xlink:href="#cAv6R7SIb" opacity="1" fill="#000000" fill-opacity="1"></use><g><use xlink:href="#cAv6R7SIb" opacity="1" fill-opacity="0" stroke="#000000" stroke-width="1" stroke-opacity="0"></use></g></g><g><use xlink:href="#c1ln9PACcR" opacity="1" fill="#000000" fill-opacity="1"></use><g><use xlink:href="#c1ln9PACcR" opacity="1" fill-opacity="0" stroke="#000000" stroke-width="1" stroke-opacity="0"></use></g></g></g></svg>